<svg width="16" height="19" viewBox="0 0 16 19" fill="none" xmlns="http://www.w3.org/2000/svg">
<path d="M15.9079 0H2.17075C1.02441 0 0.0917969 0.957311 0.0917969 2.13405V16.8684C0.0917969 18.0438 1.02336 19 2.16837 19H15.8941V17.8847C15.3482 17.8847 14.9041 17.4288 14.9041 16.8684C14.9041 16.308 15.3482 15.8522 15.8941 15.8522L15.9079 0ZM2.17075 1.11529H14.8214V14.7369H2.16837C1.8101 14.7369 1.47277 14.8305 1.17831 14.9952V2.13405C1.17834 1.57229 1.62352 1.11529 2.17075 1.11529V1.11529ZM14.0692 17.8847H2.16837C1.62247 17.8847 1.17831 17.4288 1.17831 16.8684C1.17831 16.308 1.62243 15.8522 2.16837 15.8522H14.0692C13.9088 16.1544 13.8175 16.5007 13.8175 16.8684C13.8175 17.2362 13.9088 17.5825 14.0692 17.8847Z" fill="#1D1D1B"/>
<path d="M8.18918 12.4584C10.5896 12.4584 12.5425 10.4538 12.5425 7.9899C12.5425 5.52591 10.5896 3.52133 8.18918 3.52133C5.78879 3.52133 3.83594 5.52591 3.83594 7.9899C3.8359 10.4538 5.78879 12.4584 8.18918 12.4584ZM8.18918 4.63662C9.99048 4.63662 11.4559 6.14088 11.4559 7.9899C11.4559 9.83887 9.99048 11.3431 8.18918 11.3431C6.3879 11.3431 4.92245 9.83887 4.92245 7.9899C4.92241 6.14088 6.38787 4.63662 8.18918 4.63662V4.63662Z" fill="#1D1D1B"/>
<path d="M8.20247 7.04668C8.58351 7.04668 8.82681 6.81107 8.82681 6.48592C8.82681 6.17962 8.58351 5.96286 8.20247 5.96286C7.82146 5.96286 7.57812 6.19847 7.57812 6.50477C7.57812 6.81103 7.82146 7.04668 8.20247 7.04668V7.04668Z" fill="#1D1D1B"/>
<path d="M7.68359 7.62509H8.72108V9.83162H7.68359V7.62509Z" fill="#1D1D1B"/>
</svg>
