<svg width="36" height="33" viewBox="0 0 36 33" fill="none" xmlns="http://www.w3.org/2000/svg">
<path d="M18 0.75C8.01562 0.75 0 7.28906 0 15.375C0 18.8203 1.54688 22.0547 4.00781 24.5156C3.16406 28.1016 0.210938 31.2656 0.210938 31.2656C0 31.4062 0 31.6875 0.0703125 31.8984C0.140625 32.1094 0.351562 32.25 0.5625 32.25C5.27344 32.25 8.64844 30 10.4766 28.5938C12.7969 29.4375 15.3281 30 18 30C27.9844 30 35.9297 23.3906 35.9297 15.375C35.9297 7.28906 27.9141 0.75 18 0.75ZM17.5078 23.25C16.5234 23.25 15.75 22.4766 15.75 21.4219C15.75 20.4375 16.5234 19.5938 17.5078 19.5938C18.4922 19.5938 19.3359 20.4375 19.3359 21.4219C19.3359 22.4766 18.5625 23.25 17.5078 23.25ZM21.5859 15.0938L18.9141 16.7109V16.8516C18.9141 17.5547 18.2812 18.2578 17.5078 18.2578C16.7344 18.2578 16.1016 17.5547 16.1016 16.8516V15.8672C16.1016 15.375 16.3125 14.8828 16.8047 14.6016L20.1094 12.6328C20.5312 12.4922 20.8125 12.0703 20.8125 11.5781C20.8125 10.875 20.1797 10.3125 19.4766 10.3125H16.4531C15.75 10.3125 15.1172 10.875 15.1172 11.5781C15.1172 12.3516 14.4844 12.9844 13.7109 12.9844C13.0078 12.9844 12.375 12.3516 12.375 11.5781C12.375 9.32812 14.1328 7.5 16.4531 7.5H19.4766C21.7969 7.5 23.625 9.32812 23.625 11.5781C23.625 12.9844 22.8516 14.3203 21.5859 15.0938Z" fill="#004390"/>
</svg>
