<svg width="16" height="19" viewBox="0 0 16 19" fill="none" xmlns="http://www.w3.org/2000/svg">
<g clip-path="url(#clip0_2207_163914)">
<path d="M11.3847 8.16406C11.3847 7.75415 11.0706 7.42188 10.6832 7.42188H3.45739C3.06993 7.42188 2.75586 7.75415 2.75586 8.16406C2.75586 8.57397 3.06993 8.90625 3.45739 8.90625H10.6832C11.0706 8.90625 11.3847 8.57397 11.3847 8.16406Z" fill="#1D1D1B"/>
<path d="M3.45739 10.3906C3.06993 10.3906 2.75586 10.7229 2.75586 11.1328C2.75586 11.5427 3.06993 11.875 3.45739 11.875H7.84585C8.2333 11.875 8.54738 11.5427 8.54738 11.1328C8.54738 10.7229 8.2333 10.3906 7.84585 10.3906H3.45739Z" fill="#1D1D1B"/>
<path d="M5.10548 17.5156H2.75925C1.9856 17.5156 1.35619 16.8497 1.35619 16.0312V2.96875C1.35619 2.15027 1.9856 1.48438 2.75925 1.48438H11.3842C12.1578 1.48438 12.7872 2.15027 12.7872 2.96875V7.5332C12.7872 7.94311 13.1013 8.27539 13.4888 8.27539C13.8762 8.27539 14.1903 7.94311 14.1903 7.5332V2.96875C14.1903 1.33178 12.9315 0 11.3842 0H2.75925C1.21195 0 -0.046875 1.33178 -0.046875 2.96875V16.0312C-0.046875 17.6682 1.21195 19 2.75925 19H5.10548C5.49294 19 5.80701 18.6677 5.80701 18.2578C5.80701 17.8479 5.49294 17.5156 5.10548 17.5156Z" fill="#1D1D1B"/>
<path d="M15.4327 10.7458C14.6121 9.87769 13.2769 9.87765 12.4569 10.7452L8.60537 14.8109C8.52357 14.8973 8.46324 15.0036 8.42964 15.1206L7.59085 18.042C7.51649 18.3011 7.58128 18.5823 7.75996 18.7761C7.89381 18.9212 8.07564 19 8.26215 19C8.32455 19 8.38754 18.9912 8.44938 18.973L11.2809 18.1432C11.3975 18.1091 11.5037 18.0436 11.5893 17.9532L15.4327 13.8947C16.2533 13.0266 16.2533 11.614 15.4327 10.7458ZM10.7286 16.7648L9.30409 17.1823L9.72098 15.7302L12.3198 12.9869L13.3121 14.0368L10.7286 16.7648ZM14.4411 12.8447L14.3052 12.9882L13.313 11.9385L13.4485 11.7955C13.722 11.5061 14.1671 11.5061 14.4406 11.7955C14.7141 12.0849 14.7141 12.5557 14.4411 12.8447Z" fill="#1D1D1B"/>
<path d="M10.6832 4.45312H3.45739C3.06993 4.45312 2.75586 4.7854 2.75586 5.19531C2.75586 5.60522 3.06993 5.9375 3.45739 5.9375H10.6832C11.0706 5.9375 11.3847 5.60522 11.3847 5.19531C11.3847 4.7854 11.0706 4.45312 10.6832 4.45312Z" fill="#1D1D1B"/>
</g>
<defs>
<clipPath id="clip0_2207_163914">
<rect width="16" height="19" fill="white"/>
</clipPath>
</defs>
</svg>
