<svg width="16" height="16" viewBox="0 0 16 16" fill="none" xmlns="http://www.w3.org/2000/svg">
<path d="M11.3017 4.95606L6.38503 3.12275C5.97725 2.97056 5.54166 3.27269 5.54166 3.70834V7.375C5.54166 7.81122 5.97806 8.11247 6.38503 7.96059L11.3017 6.12725C11.8427 5.92553 11.8424 5.15766 11.3017 4.95606ZM6.79166 6.47491V4.60844L9.29444 5.54166L6.79166 6.47491ZM14.125 0H1.875C0.841125 0 0 0.841125 0 1.875V9.20834C0 10.2422 0.841125 11.0833 1.875 11.0833H14.125C15.1589 11.0833 16 10.2422 16 9.20834V1.875C16 0.841125 15.1589 0 14.125 0V0ZM14.75 9.20834C14.75 9.55297 14.4696 9.83334 14.125 9.83334H1.875C1.53038 9.83334 1.25 9.55297 1.25 9.20834V1.875C1.25 1.53038 1.53038 1.25 1.875 1.25H14.125C14.4696 1.25 14.75 1.53038 14.75 1.875V9.20834ZM14.1458 13.5208H12.2038C11.9468 12.8051 11.2615 12.2917 10.4583 12.2917C9.65519 12.2917 8.96991 12.8051 8.71281 13.5208H1.85416C1.50897 13.5208 1.22916 13.8007 1.22916 14.1458C1.22916 14.491 1.50897 14.7708 1.85416 14.7708H8.71281C8.96991 15.4866 9.65519 16 10.4583 16C11.2615 16 11.9468 15.4866 12.2038 14.7708H14.1458C14.491 14.7708 14.7708 14.491 14.7708 14.1458C14.7708 13.8007 14.491 13.5208 14.1458 13.5208V13.5208ZM10.4583 14.75C10.1252 14.75 9.85416 14.479 9.85416 14.1458C9.85416 13.8127 10.1252 13.5417 10.4583 13.5417C10.7915 13.5417 11.0625 13.8127 11.0625 14.1458C11.0625 14.479 10.7915 14.75 10.4583 14.75Z" fill="#1D1D1B"/>
</svg>
