<svg width="150" height="150" viewBox="0 0 150 150" fill="none" xmlns="http://www.w3.org/2000/svg">
<path d="M43.7539 112.506C36.8789 112.506 31.3164 118.131 31.3164 125.006C31.3164 131.881 36.8789 137.506 43.7539 137.506C50.6289 137.506 56.2539 131.881 56.2539 125.006C56.2539 118.131 50.6289 112.506 43.7539 112.506ZM6.25391 12.5061V25.0061H18.7539L41.2539 72.4436L32.8164 87.7561C31.8164 89.5061 31.2539 91.5686 31.2539 93.7561C31.2539 100.631 36.8789 106.256 43.7539 106.256H118.754V93.7561H46.3789C45.5039 93.7561 44.8164 93.0686 44.8164 92.1936L45.0039 91.4436L50.6289 81.2561H97.1914C101.879 81.2561 106.004 78.6936 108.129 74.8186L130.504 34.2561C131.004 33.3811 131.254 32.3186 131.254 31.2561C131.254 27.8186 128.441 25.0061 125.004 25.0061H32.5664L26.6914 12.5061H6.25391ZM106.254 112.506C99.3789 112.506 93.8164 118.131 93.8164 125.006C93.8164 131.881 99.3789 137.506 106.254 137.506C113.129 137.506 118.754 131.881 118.754 125.006C118.754 118.131 113.129 112.506 106.254 112.506Z" fill="#999999"/>
</svg>
