<svg width="702" height="691" viewBox="0 0 702 691" fill="none" xmlns="http://www.w3.org/2000/svg">
<path opacity="0.5" d="M223.07 177.867V228.648H18.3828L14.4766 188.414L128.734 4.625H180.688L124.242 97.0078L77.3672 177.867H223.07ZM194.359 4.625V289H128.539V4.625H194.359ZM450.023 120.836V172.789C450.023 193.232 447.615 211.005 442.797 226.109C438.109 241.214 431.339 253.714 422.484 263.609C413.76 273.505 403.344 280.862 391.234 285.68C379.125 290.497 365.779 292.906 351.195 292.906C339.477 292.906 328.539 291.409 318.383 288.414C308.227 285.289 299.047 280.602 290.844 274.352C282.771 267.971 275.805 260.029 269.945 250.523C264.086 241.018 259.594 229.82 256.469 216.93C253.344 203.909 251.781 189.195 251.781 172.789V120.836C251.781 100.263 254.125 82.4896 258.812 67.5156C263.63 52.4115 270.466 39.9115 279.32 30.0156C288.174 20.1198 298.656 12.763 310.766 7.94531C322.875 3.1276 336.221 0.71875 350.805 0.71875C362.523 0.71875 373.396 2.28125 383.422 5.40625C393.578 8.40104 402.758 13.0885 410.961 19.4688C419.164 25.7188 426.13 33.5964 431.859 43.1016C437.719 52.6068 442.211 63.8698 445.336 76.8906C448.461 89.7812 450.023 104.43 450.023 120.836ZM384.203 180.797V112.438C384.203 103.323 383.682 95.3802 382.641 88.6094C381.729 81.8385 380.297 76.1094 378.344 71.4219C376.521 66.7344 374.242 62.9583 371.508 60.0938C368.773 57.099 365.648 54.9505 362.133 53.6484C358.747 52.2161 354.971 51.5 350.805 51.5C345.596 51.5 340.909 52.6068 336.742 54.8203C332.706 56.9036 329.255 60.2891 326.391 64.9766C323.526 69.6641 321.312 75.9141 319.75 83.7266C318.318 91.5391 317.602 101.109 317.602 112.438V180.797C317.602 190.042 318.057 198.115 318.969 205.016C320.01 211.786 321.443 217.581 323.266 222.398C325.219 227.086 327.562 230.927 330.297 233.922C333.031 236.786 336.156 238.87 339.672 240.172C343.188 241.474 347.029 242.125 351.195 242.125C356.273 242.125 360.831 241.083 364.867 239C368.904 236.917 372.354 233.531 375.219 228.844C378.214 224.026 380.427 217.711 381.859 209.898C383.422 201.956 384.203 192.255 384.203 180.797ZM687.133 177.867V228.648H482.445L478.539 188.414L592.797 4.625H644.75L588.305 97.0078L541.43 177.867H687.133ZM658.422 4.625V289H592.602V4.625H658.422Z" fill="#EDEDED"/>
<g clip-path="url(#clip0_2207_163450)">
<path d="M382.392 517.637H455.197C449.167 563.677 450.618 552.438 450.405 554.744C449.279 566.751 438.419 579.351 419.239 579.351C400.059 579.351 391.1 567.381 387.835 557.427C387.347 555.903 386.859 551.745 382.392 517.637Z" fill="#313540"/>
<path d="M411.969 595.227C415.285 597.155 420.677 597.155 424.005 595.215C427.334 593.274 427.359 590.137 424.043 588.209C420.727 586.281 415.335 586.281 411.994 588.222C408.654 590.162 408.654 593.287 411.969 595.227Z" fill="#313540"/>
<path d="M409.505 591.51H426.509L428.285 561.535H407.741L409.505 591.51Z" fill="#313540"/>
<path d="M368.054 691C374.497 691 381.003 689.274 387.184 685.809C410.906 672.491 424.056 638.08 423.267 591.41L412.745 591.599C413.458 633.594 401.985 665.359 382.054 676.548C372.633 681.84 362.148 681.6 353.315 675.88C338.564 666.354 331.007 644.582 333.121 617.643C334.347 601.968 338.038 587.226 341.617 572.963C350.8 536.285 359.471 501.647 315.668 473.411L310 482.344C347.41 506.46 340.703 533.261 331.407 570.368C327.729 585.059 323.925 600.242 322.624 616.799C320.209 647.706 329.556 673.121 347.622 684.801C354.003 688.934 360.997 691 368.054 691Z" fill="#313540"/>
<path d="M416.386 578.873C419.526 579.2 422.066 579.301 425.582 578.57C425.544 579.251 424.981 591.095 424.644 591.674C423.43 593.804 418.888 594.597 417.074 593.274C415.836 592.544 416.386 578.873 416.386 578.873Z" fill="#404450"/>
<path d="M402.749 533.538H448.754C444.95 562.631 445.864 555.525 445.726 556.986C445.013 564.572 438.157 572.535 426.033 572.535C413.909 572.535 408.254 564.975 406.189 558.675C405.877 557.717 405.564 555.096 402.749 533.538Z" fill="#404450"/>
<path d="M365.755 496.319C365.666 479.256 389.384 465.298 418.73 465.144C448.076 464.989 471.938 478.695 472.027 495.758C472.116 512.821 448.398 526.778 419.052 526.933C389.705 527.088 365.844 513.381 365.755 496.319Z" fill="#404450"/>
<path d="M381.178 515.444C401.86 527.465 435.503 527.402 456.323 515.306C466.244 509.535 471.449 502.063 471.95 494.528C472.563 502.895 467.358 511.412 456.323 517.826C435.503 529.934 401.86 529.985 381.178 517.964C370.356 511.677 365.238 503.323 365.789 495.045C366.327 502.479 371.457 509.787 381.178 515.444Z" fill="#7C818A"/>
<g style="mix-blend-mode:screen" opacity="0.1">
<path d="M457.512 517.095L382.693 473.6C403.587 462.209 436.28 462.348 456.561 474.141C476.843 485.935 477.118 504.948 457.512 517.095Z" fill="white"/>
</g>
<path d="M434.615 500.236C438.219 502.34 444.074 502.328 447.69 500.223C451.306 498.119 451.331 494.705 447.728 492.613C444.124 490.521 438.281 490.534 434.653 492.638C431.025 494.742 431.025 498.144 434.615 500.236Z" fill="#353843"/>
<path d="M433.515 495.272V446.724H433.528C433.641 443.687 436.431 439 441.21 439C445.989 439 448.792 443.675 448.842 446.724V446.762C448.842 446.774 448.855 446.799 448.842 446.812V495.662C448.892 496.847 448.154 498.056 446.578 498.976C443.55 500.727 438.67 500.74 435.667 498.989C433.916 497.981 433.653 496.884 433.515 495.272Z" fill="#B0B7C9"/>
<path d="M433.515 495.272V446.724H433.528C433.64 443.687 436.431 439 441.21 439C441.694 439.003 442.176 439.057 442.649 439.164C438.758 439.983 436.506 444.015 436.406 446.724H436.393V493.646C436.456 495.372 436.806 497.565 438.545 498.573C441.035 500.022 444.388 499.858 447.729 498.094C447.383 498.435 446.996 498.732 446.577 498.976C443.55 500.727 438.67 500.74 435.667 498.989C433.916 497.981 433.44 496.746 433.515 495.272Z" fill="#878B9B"/>
<path d="M447.352 444.683C447.652 443.561 444.925 439.97 443.036 439.97C441.622 440.058 440.458 442.755 440.646 444.67C440.884 447.24 446.614 447.392 447.352 444.683Z" fill="#DAE2F3"/>
<path d="M446.977 447.215V497.124C444.85 499.077 440.458 498.51 440.458 498.51V448.337C442.735 448.589 445.162 448.198 446.977 447.215Z" fill="#DAE2F3"/>
<path d="M439.809 444.985C439.809 440.84 437.219 444.065 437.219 445.577C437.219 447.329 439.809 446.648 439.809 444.985Z" fill="#DAE2F3"/>
<path d="M390 500.236C393.604 502.34 399.459 502.328 403.075 500.223C406.691 498.119 406.716 494.705 403.112 492.613C399.509 490.521 393.666 490.534 390.038 492.638C386.409 494.742 386.397 498.144 390 500.236Z" fill="#353843"/>
<path d="M388.898 495.272V446.837C388.898 446.825 388.885 446.812 388.898 446.787V446.724C389.023 443.687 391.813 439 396.58 439C401.347 439 404.175 443.675 404.225 446.724V495.662H404.212C404.275 496.847 403.536 498.056 401.96 498.976C398.932 500.727 394.053 500.74 391.037 498.989C389.298 497.981 389.036 496.884 388.898 495.272Z" fill="#B0B7C9"/>
<path d="M388.898 495.272V446.837C388.898 446.825 388.886 446.812 388.898 446.787V446.724C389.023 443.687 391.813 439 396.58 439C397.069 439.002 397.555 439.057 398.032 439.164C394.141 439.983 391.888 444.015 391.788 446.724H391.776V493.646C391.838 495.372 392.176 497.565 393.928 498.573C396.405 500.022 399.771 499.858 403.111 498.094C402.763 498.432 402.377 498.728 401.96 498.976C398.932 500.727 394.053 500.74 391.038 498.989C389.299 497.981 388.823 496.746 388.898 495.272Z" fill="#878B9B"/>
<path d="M402.737 444.683C403.037 443.561 400.297 439.97 398.421 439.97C396.994 440.058 395.843 442.755 396.018 444.67C396.269 447.24 401.999 447.392 402.737 444.683Z" fill="#DAE2F3"/>
<path d="M402.361 447.215V497.124C400.222 499.077 395.843 498.51 395.843 498.51V448.337C398.12 448.589 400.547 448.198 402.361 447.215Z" fill="#DAE2F3"/>
<path d="M395.191 444.985C395.191 440.84 392.601 444.065 392.601 445.577C392.601 447.329 395.191 446.648 395.191 444.985Z" fill="#DAE2F3"/>
<path d="M365.815 497.817C366.453 505.163 371.571 512.37 381.18 517.964C401.861 529.985 435.505 529.934 456.324 517.826C466.421 511.954 471.626 504.331 471.964 496.658V511.198C471.989 511.74 471.989 512.269 471.964 512.811V513.995H471.876C471.088 521.265 465.896 528.41 456.324 533.979C435.505 546.087 401.861 546.15 381.18 534.117C371.571 528.536 366.453 521.328 365.815 513.995C365.715 512.927 365.715 511.851 365.815 510.782V497.817Z" fill="#353843"/>
<path d="M400.072 524.995C418.952 529.065 441.072 526.696 456.324 517.826L457.225 517.284V533.437L456.324 533.979C441.072 542.849 418.952 545.231 400.072 541.148V524.995Z" fill="#464B56"/>
<path d="M365.814 512.458V512.483C366.452 519.816 371.569 527.024 381.178 532.605C401.86 544.626 435.503 544.575 456.323 532.467C465.894 526.898 471.086 519.741 471.875 512.483H471.962C471.968 512.592 471.968 512.702 471.962 512.811V513.995H471.875C471.086 521.265 465.894 528.41 456.323 533.979C435.503 546.087 401.86 546.15 381.178 534.117C371.569 528.536 366.452 521.328 365.814 513.995C365.745 513.208 365.732 512.416 365.776 511.626C365.776 511.904 365.789 512.181 365.814 512.458Z" fill="#2D3039"/>
<path d="M421.629 604.35C421.629 604.35 418.614 605.106 416.612 605.106C416.612 605.106 417.613 619.747 412.846 636.656C405.702 662.033 390.913 678.564 391.288 679.32C392.677 680.328 419.489 655.594 421.629 604.35Z" fill="#464B56"/>
<path d="M345.546 548.305C345.546 548.305 350.188 530.136 346.547 514.096C342.907 498.056 331.884 487.85 331.383 487.976C330.883 488.102 341.418 501.105 343.795 514.978C347.248 535.151 343.945 548.091 345.546 548.305Z" fill="#4F5561"/>
</g>
<path d="M64.966 254.611H319V230.735H64.966C34.9817 230.735 23.8764 222.683 23.8764 201.305C23.8764 173.82 34.7041 171.599 52.7502 171.599C54.6936 171.599 56.6371 171.599 58.5805 171.599C60.5239 171.599 62.4674 171.599 64.1332 171.599H318.722V148H64.1332C62.4674 148 60.8016 148 58.8582 148C56.9147 148 54.6936 148 52.7502 148C38.3133 148 0 148 0 201.305C0 236.565 21.933 254.611 64.966 254.611Z" fill="#ED1C24"/>
<path d="M304.007 180.205H49.9727V187.979H304.007V180.205Z" fill="#B3B3B3"/>
<path d="M304.007 196.586H49.9727V204.359H304.007V196.586Z" fill="#B3B3B3"/>
<path d="M304.007 214.354H49.9727V222.406H304.007V214.354Z" fill="#B3B3B3"/>
<path d="M64.966 488.933H319V465.057H64.966C34.9817 465.057 23.8764 457.005 23.8764 435.627C23.8764 408.142 34.7041 405.921 52.7502 405.921C54.6936 405.921 56.6371 405.921 58.5805 405.921C60.5239 405.921 62.4674 405.921 64.1332 405.921H318.722V382.044H64.1332C62.4674 382.044 60.8016 382.044 58.8582 382.044C56.9147 382.044 54.6936 382.044 52.7502 382.044C38.3133 382.044 0 382.044 0 435.35C0 471.164 21.933 488.933 64.966 488.933Z" fill="#ED1C24"/>
<path d="M304.007 414.805H49.9727V422.579H304.007V414.805Z" fill="#B3B3B3"/>
<path d="M304.007 431.185H49.9727V438.959H304.007V431.185Z" fill="#B3B3B3"/>
<path d="M304.007 448.676H49.9727V456.728H304.007V448.676Z" fill="#B3B3B3"/>
<path d="M64.966 371.772H217.664V347.896H64.966C34.9817 347.896 23.8764 339.844 23.8764 318.466C23.8764 290.981 34.7041 288.76 52.7502 288.76C54.6936 288.76 56.6371 288.76 58.5805 288.76C60.5239 288.76 62.4674 288.76 64.1332 288.76H217.664V264.883H64.1332C62.4674 264.883 60.8016 264.883 58.8582 264.883C56.9147 264.883 54.6936 264.883 52.7502 264.883C38.3133 264.883 0 264.883 0 318.189C0 353.726 21.933 371.772 64.966 371.772Z" fill="#ED1C24"/>
<path d="M202.671 297.366H49.9727V305.14H202.671V297.366Z" fill="#B3B3B3"/>
<path d="M202.671 314.024H49.9727V321.798H202.671V314.024Z" fill="#B3B3B3"/>
<path d="M202.671 331.515H49.9727V339.567H202.671V331.515Z" fill="#B3B3B3"/>
<g clip-path="url(#clip1_2207_163450)">
<path d="M476.213 254.335L483.687 250.133H483.676C485.865 248.571 488.85 248.549 492.134 250.43L599.86 312.316C606.56 316.166 612 326.506 612 335.394V453.886C612 458.891 610.275 462.378 607.566 463.775L598.732 468.67C598.732 468.67 600.589 465.601 601.994 463.973C601.252 463.726 600.537 463.406 599.86 463.016L492.134 401.141C485.434 397.291 479.994 386.951 479.994 378.063V259.571C479.994 257.195 480.392 255.171 481.089 253.543C478.568 255.545 476.213 254.335 476.213 254.335Z" fill="#E1CCB0"/>
<path d="M612 335.394V453.886C612 458.891 610.275 462.378 607.566 463.775L598.732 468.67C598.732 468.67 600.589 465.601 601.994 463.973C601.252 463.726 600.537 463.406 599.86 463.016L536.836 426.815V376.479L611.9 333.37C611.956 334.052 612 334.723 612 335.394Z" fill="#C7AF95"/>
<path d="M479.994 259.571C479.994 257.195 480.392 255.171 481.088 253.543C478.567 255.545 476.212 254.335 476.212 254.335L483.687 250.133H483.676C485.865 248.571 488.85 248.549 492.134 250.43L599.859 312.316C600.324 312.591 600.777 312.888 601.23 313.218L516.625 361.827L479.994 331.94V259.571Z" fill="#F2DCC5"/>
<path d="M484.139 405.673L591.854 467.548C598.565 471.398 603.994 467.317 603.994 458.418V339.937C603.994 331.038 598.565 320.709 591.854 316.859L484.139 254.984C477.428 251.134 471.999 255.215 471.999 264.114V382.595C471.999 391.494 477.428 401.823 484.139 405.673Z" fill="#F7EED8"/>
<path d="M487.248 404.43L587.665 462.103C594.675 466.129 600.369 462.895 600.369 454.898V340.267C600.369 332.27 594.675 322.491 587.665 318.465L487.248 260.792C480.249 256.766 474.544 260 474.544 267.997V382.628C474.544 390.625 480.249 400.404 487.248 404.43ZM587.665 319.741C594.056 323.415 599.252 332.325 599.252 339.618V454.26C599.252 461.542 594.056 464.49 587.665 460.827L487.248 403.143C480.868 399.48 475.672 390.559 475.672 383.277V268.635C475.672 261.342 480.868 258.394 487.248 262.068L587.665 319.741Z" fill="#C7AE8A"/>
<g style="mix-blend-mode:screen" opacity="0.6">
<g style="mix-blend-mode:screen" opacity="0.6">
<path d="M595.57 461.773L478.811 261.408C480.923 260.055 483.919 260.154 487.248 262.068L587.665 319.741C594.055 323.415 599.252 332.325 599.252 339.618V454.26C599.252 458.055 597.826 460.662 595.57 461.773Z" fill="#F8ECC7"/>
</g>
</g>
<path d="M511.818 376.332C497.47 351.905 497.327 325.424 511.499 317.185C525.671 308.946 548.791 322.069 563.139 346.496C577.486 370.923 577.629 397.404 563.457 405.643C549.285 413.882 526.165 400.759 511.818 376.332Z" fill="#CEBBA1"/>
<path d="M538.472 370.506L558.496 395.19L541.259 405.09C540.009 404.518 538.738 403.869 537.455 403.132C529.561 398.6 522.263 391.538 516.293 383.244L538.472 370.506Z" fill="#E1CCB0"/>
<g style="mix-blend-mode:multiply" opacity="0.4">
<path d="M537.455 319.752C539.457 320.911 541.385 322.193 543.227 323.591V342.17L505.678 363.73C502.671 355.931 500.935 347.934 500.935 340.465C500.935 317.442 517.288 308.169 537.455 319.752Z" fill="#C7AE8A"/>
</g>
<g style="mix-blend-mode:multiply" opacity="0.4">
<path d="M501.089 336.813C502.648 317.761 516.513 309.808 533.961 317.937L501.089 336.813Z" fill="#C7AE8A"/>
</g>
<path d="M547.507 396.818C529.219 386.313 514.392 360.87 514.392 339.992C514.392 325.923 521.137 317.519 531.132 316.76C533.318 317.586 535.433 318.587 537.456 319.752C557.624 331.335 573.977 359.396 573.977 382.419C573.977 389.701 572.34 395.608 569.465 399.909C563.616 402.472 555.932 401.658 547.507 396.818Z" fill="#F2DDC2"/>
<path d="M502.096 391.714L572.815 432.337C577.746 435.175 581.76 432.898 581.76 427.266V346.526C581.76 340.894 577.746 334.008 572.815 331.17L502.096 290.558C497.165 287.72 493.151 289.997 493.151 295.629V376.369C493.151 381.99 497.165 388.876 502.096 391.714ZM572.815 332.072C577.315 334.657 580.975 340.938 580.975 346.075V426.804C580.975 431.941 577.315 434.02 572.815 431.435L502.096 390.812C497.596 388.227 493.936 381.946 493.936 376.82V296.08C493.936 290.943 497.596 288.875 502.096 291.449L572.815 332.072Z" fill="#C7AE8A"/>
<path d="M542.763 359.231C542.763 362.003 544.731 365.38 547.164 366.777C549.596 368.174 551.564 367.052 551.564 364.28C551.564 361.508 549.596 358.131 547.164 356.734C544.731 355.337 542.763 356.459 542.763 359.231Z" fill="#5E6E8A"/>
<g style="mix-blend-mode:multiply" opacity="0.5">
<path d="M543.923 356.525L550.115 367.151C549.341 367.514 548.302 367.437 547.163 366.777C544.731 365.38 542.763 362.003 542.763 359.231C542.763 357.933 543.216 357.009 543.923 356.525Z" fill="#5E6E8A"/>
</g>
<path d="M543.294 359.528C543.294 361.97 545.019 364.951 547.164 366.183C549.309 367.415 551.045 366.425 551.045 363.983C551.045 361.541 549.309 358.56 547.164 357.339C545.019 356.118 543.294 357.086 543.294 359.528Z" fill="#A7B5CA"/>
<path d="M550.172 366.249C549.998 366.393 549.799 366.504 549.586 366.579L544.157 357.273C544.326 357.122 544.526 357.009 544.743 356.943L550.172 366.249Z" fill="#5E6E8A"/>
<path d="M558.341 368.185C558.341 371.375 560.608 375.269 563.405 376.875C566.203 378.481 568.48 377.194 568.48 374.004C568.48 370.814 566.214 366.909 563.405 365.303C560.597 363.697 558.341 364.984 558.341 368.185Z" fill="#4A4339"/>
<path d="M525.845 349.518C525.845 352.708 528.112 356.602 530.92 358.208C533.729 359.814 535.984 358.527 535.984 355.337C535.984 352.147 533.718 348.253 530.92 346.636C528.123 345.019 525.845 346.317 525.845 349.518Z" fill="#4A4339"/>
<path d="M537.457 401.515C551.101 409.358 563.064 407.994 569.742 399.48C563.617 409.16 551.465 411.184 537.457 403.132C523.448 395.08 511.296 379.108 505.171 362.388C511.849 378.569 523.813 393.672 537.457 401.515Z" fill="white"/>
<g style="mix-blend-mode:multiply" opacity="0.4">
<path d="M572.882 390.845C572.882 365.336 554.76 334.25 532.414 321.413C530.212 320.145 527.913 319.053 525.537 318.146C527.308 317.368 529.201 316.899 531.132 316.76C533.317 317.586 535.433 318.587 537.456 319.752C557.624 331.335 573.977 359.396 573.977 382.419C573.977 385.983 573.579 389.217 572.838 392.099C572.849 391.681 572.882 391.274 572.882 390.845Z" fill="#C7AE8A"/>
</g>
<path d="M548.856 396.136C555.058 399.7 560.896 401.24 565.982 400.987C560.708 402.021 554.351 400.745 547.507 396.818C532.901 388.425 520.517 370.517 516.117 353.005C521.678 370.528 534.239 387.743 548.856 396.136Z" fill="#FFFAEF"/>
<path d="M561.991 364.72C560.764 365.072 559.957 366.293 559.957 368.174C559.957 371.375 562.235 375.269 565.032 376.875C565.474 377.134 565.951 377.33 566.447 377.458C565.607 377.7 564.557 377.535 563.407 376.875C560.609 375.269 558.343 371.375 558.343 368.174C558.343 365.545 559.88 364.214 561.991 364.72Z" fill="#CEBBA1"/>
<path d="M529.56 346.075C528.366 346.449 527.603 347.659 527.603 349.518C527.603 352.708 529.87 356.602 532.667 358.208C533.092 358.457 533.55 358.646 534.027 358.769C533.165 359.044 532.092 358.89 530.92 358.208C528.112 356.602 525.845 352.708 525.845 349.518C525.845 346.856 527.415 345.525 529.56 346.075Z" fill="#CEBBA1"/>
</g>
<defs>
<clipPath id="clip0_2207_163450">
<rect width="162" height="252" fill="white" transform="matrix(-1 0 0 1 472 439)"/>
</clipPath>
<clipPath id="clip1_2207_163450">
<rect width="140" height="220" fill="white" transform="matrix(-1 0 0 1 612 249)"/>
</clipPath>
</defs>
</svg>
