<svg width="260" height="230" viewBox="0 0 260 230" fill="none"
	xmlns="http://www.w3.org/2000/svg">
	<path d="M260 82.757C260 77.4514 255.683 73.1345 250.377 73.1345H226.401C224.297 73.1345 222.592 74.8397 222.592 76.9431C222.592 79.0464 224.297 80.7516 226.401 80.7516H250.377C251.483 80.7516 252.383 81.6509 252.383 82.757V214.762L199.846 150.165C198.011 147.909 195.29 146.615 192.382 146.615H148.001C145.897 146.615 144.192 148.32 144.192 150.423C144.192 152.527 145.897 154.232 148.001 154.232H192.381C192.987 154.232 193.554 154.502 193.936 154.972L248.185 221.673H61.224C60.6177 221.673 60.0505 221.403 59.6681 220.932L8.07993 157.502C7.35885 156.615 7.6615 155.72 7.82502 155.376C7.98853 155.032 8.49278 154.232 9.63586 154.232H129.198C131.301 154.232 133.007 152.527 133.007 150.423C133.007 148.32 131.301 146.615 129.198 146.615H62.2686V117.431C62.8089 117.445 63.3507 117.454 63.8946 117.454H108.653C111.847 117.454 114.702 115.548 115.924 112.596C117.146 109.644 116.477 106.278 114.218 104.019L107.777 97.5783C116.71 87.4247 121.775 74.6569 122.23 61.0863H134.788C135.323 61.0863 135.827 61.295 136.205 61.6733L146.892 72.3596C146.042 74.4472 145.569 76.7273 145.569 79.1165C145.569 89.0324 153.636 97.0995 163.552 97.0995C172.916 97.0995 180.628 89.9033 181.458 80.7516H207.598C209.701 80.7516 211.407 79.0464 211.407 76.9431C211.407 74.8397 209.701 73.1345 207.598 73.1345H180.509C178.038 66.1517 171.372 61.134 163.553 61.134C158.815 61.134 154.503 62.9784 151.287 65.9836L141.592 56.2875C139.774 54.47 137.358 53.4692 134.788 53.4692H121.99C121.056 43.6832 117.693 34.338 112.106 26.1689C110.919 24.4327 108.549 23.9879 106.812 25.1751C105.076 26.3624 104.631 28.7328 105.819 30.469C111.596 38.9164 114.65 48.811 114.65 59.082C114.65 72.6389 109.37 85.3849 99.7839 94.9713C98.2965 96.4586 98.2965 98.8702 99.7839 100.357L108.831 109.405C108.895 109.469 108.951 109.525 108.886 109.681C108.822 109.837 108.743 109.837 108.653 109.837H63.8946C35.9083 109.837 13.1397 87.0687 13.1392 59.0825C13.1392 45.5387 18.4219 32.7968 28.0154 23.2033C37.6089 13.6098 50.3509 8.3266 63.8946 8.3266C74.6474 8.3266 84.9229 11.6492 93.61 17.9338C95.3147 19.1673 97.6958 18.7849 98.9282 17.0807C100.161 15.3765 99.7793 12.9954 98.0751 11.7624C88.081 4.53125 76.2612 0.708984 63.8946 0.708984C48.3161 0.708984 33.6612 6.78439 22.6291 17.8165C11.5975 28.8491 5.52211 43.5045 5.52211 59.0825C5.52211 88.124 26.8419 112.276 54.6515 116.72V146.615H9.63586C5.88671 146.615 2.55702 148.718 0.946254 152.104C-0.664004 155.49 -0.195298 159.4 2.17058 162.309L53.7587 225.739C55.594 227.996 58.3153 229.29 61.224 229.29H256.191C258.238 229.316 260.033 227.53 259.999 225.48V82.757H260ZM163.553 68.7511C169.268 68.7511 173.919 73.4011 173.919 79.117C173.919 84.8329 169.269 89.4829 163.553 89.4829C157.837 89.4829 153.187 84.8329 153.187 79.117C153.187 73.4011 157.837 68.7511 163.553 68.7511Z" fill="#999999"/>
	<path d="M140.522 191.409L153.669 208.683C155.339 210.877 157.983 212.188 160.741 212.188H212.038C214.468 212.188 216.647 210.835 217.726 208.659C218.805 206.482 218.561 203.929 217.09 201.995L203.944 184.721C202.273 182.526 199.63 181.216 196.872 181.216H145.574C143.144 181.216 140.965 182.569 139.886 184.746C138.808 186.923 139.051 189.476 140.522 191.409V191.409ZM196.872 188.834C197.266 188.834 197.644 189.021 197.882 189.335L209.477 204.57H160.741C160.347 204.57 159.969 204.383 159.731 204.07L148.135 188.834H196.872Z" fill="#999999"/>
	<path d="M102.892 208.378C102.892 210.481 104.597 212.187 106.7 212.187H130.002C132.106 212.187 133.811 210.481 133.811 208.378C133.811 206.275 132.106 204.569 130.002 204.569H106.7C104.597 204.569 102.892 206.275 102.892 208.378Z" fill="#999999"/>
	<path d="M121.496 199.554C123.6 199.554 125.305 197.849 125.305 195.746C125.305 193.642 123.6 191.937 121.496 191.937H111.605C109.502 191.937 107.797 193.642 107.797 195.746C107.797 197.849 109.502 199.554 111.605 199.554H121.496Z" fill="#999999"/>
	<path d="M90.8547 43.5458C90.8547 40.4939 89.666 37.6242 87.5083 35.4671C85.3501 33.3089 82.481 32.1201 79.4291 32.1201C76.3771 32.1201 73.5075 33.3089 71.3498 35.4671L63.8927 42.9242L56.4365 35.4666C54.2784 33.3084 51.4092 32.1201 48.3573 32.1201C45.3054 32.1201 42.4358 33.3089 40.2781 35.4666C38.1199 37.6248 36.9316 40.4939 36.9316 43.5458C36.9316 46.5977 38.1199 49.4668 40.2781 51.625L47.7347 59.0822L40.2781 66.5388C38.1199 68.697 36.9316 71.5661 36.9316 74.618C36.9316 77.6699 38.1204 80.5396 40.2781 82.6967C42.4363 84.8549 45.3054 86.0437 48.3573 86.0437C51.4092 86.0437 54.2789 84.8549 56.4365 82.6972L63.8932 75.2401L71.3503 82.6972C73.5085 84.8554 76.3776 86.0437 79.4296 86.0437C82.4815 86.0437 85.3506 84.8554 87.5088 82.6972C89.667 80.5391 90.8552 77.6699 90.8552 74.618C90.8552 71.5661 89.667 68.697 87.5088 66.5388L80.0516 59.0816L87.5088 51.6245C89.6665 49.4668 90.8547 46.5977 90.8547 43.5458V43.5458ZM82.122 46.2387L71.9719 56.3887C70.4845 57.8761 70.4845 60.2877 71.9719 61.7745L82.122 71.9246C82.8415 72.6442 83.2376 73.6004 83.2376 74.6175C83.2376 75.6346 82.8415 76.5914 82.122 77.3104C81.4024 78.0295 80.4462 78.4261 79.4291 78.4261C78.4119 78.4261 77.4552 78.03 76.7362 77.3104L66.5861 67.1604C65.8721 66.4459 64.9032 66.0447 63.8932 66.0447C62.8832 66.0447 61.9143 66.4459 61.2003 67.1604L51.0502 77.3104C50.3312 78.0295 49.375 78.4256 48.3573 78.4256C47.3397 78.4256 46.3835 78.0295 45.6644 77.3099C44.9448 76.5908 44.5488 75.6347 44.5488 74.617C44.5488 73.5999 44.9448 72.6432 45.6644 71.9241L55.814 61.774C57.3013 60.2867 57.3013 57.8751 55.814 56.3882L45.6644 46.2382C44.9448 45.5186 44.5488 44.5624 44.5488 43.5453C44.5488 42.5281 44.9448 41.5714 45.6644 40.8524C46.3835 40.1328 47.3397 39.7367 48.3573 39.7367C49.375 39.7367 50.3312 40.1328 51.0502 40.8524L61.1998 51.0024C61.9137 51.7169 62.8826 52.1181 63.8927 52.1181C64.9027 52.1181 65.8716 51.7169 66.5856 51.0024L76.7356 40.8524C77.4552 40.1328 78.4109 39.7367 79.4286 39.7367C80.4462 39.7367 81.4019 40.1328 82.1215 40.8529C82.841 41.5719 83.2371 42.5281 83.2371 43.5458C83.2376 44.5629 82.8415 45.5191 82.122 46.2387V46.2387Z" fill="#999999"/>
	<path d="M213.193 65.9307C221.461 65.9307 228.188 59.2043 228.188 50.9366C228.188 42.6689 221.461 35.9424 213.193 35.9424C204.926 35.9424 198.199 42.6689 198.199 50.9366C198.199 59.2043 204.926 65.9307 213.193 65.9307ZM213.193 43.5596C217.261 43.5596 220.57 46.869 220.57 50.9366C220.57 55.0041 217.261 58.3136 213.193 58.3136C209.126 58.3136 205.816 55.0041 205.816 50.9366C205.816 46.869 209.126 43.5596 213.193 43.5596V43.5596Z" fill="#999999"/>
	<path d="M174.801 37.9379C175.545 38.6813 176.52 39.0535 177.494 39.0535C178.469 39.0535 179.444 38.6818 180.187 37.9379L182.248 35.8772L184.309 37.9379C185.052 38.6818 186.027 39.0535 187.002 39.0535C187.976 39.0535 188.951 38.6818 189.695 37.9379C191.182 36.4505 191.182 34.0394 189.695 32.552L187.634 30.4913L189.695 28.4306C191.182 26.9432 191.182 24.5316 189.695 23.0447C188.207 21.5574 185.796 21.5574 184.309 23.0447L182.248 25.1054L180.187 23.0447C178.7 21.5574 176.288 21.5574 174.801 23.0447C173.314 24.5321 173.314 26.9432 174.801 28.4306L176.862 30.4913L174.801 32.552C173.314 34.0394 173.314 36.451 174.801 37.9379V37.9379Z" fill="#999999"/>
	<path d="M14.3815 134.901C15.125 135.645 16.1 136.017 17.0745 136.017C18.049 136.017 19.024 135.645 19.7674 134.901L23.3551 131.314L26.9428 134.901C27.6862 135.645 28.6612 136.017 29.6357 136.017C30.6102 136.017 31.5852 135.645 32.3287 134.901C33.816 133.414 33.816 131.003 32.3287 129.516L28.741 125.928L32.3287 122.34C33.816 120.853 33.816 118.441 32.3287 116.954C30.8413 115.467 28.4297 115.467 26.9428 116.954L23.3551 120.542L19.7674 116.954C18.28 115.467 15.8684 115.467 14.3815 116.954C12.8942 118.442 12.8942 120.853 14.3815 122.34L17.9692 125.928L14.3815 129.516C12.8937 131.003 12.8937 133.414 14.3815 134.901V134.901Z" fill="#999999"/>
</svg>
