<svg width="40" height="40" viewBox="0 0 40 40" fill="none" xmlns="http://www.w3.org/2000/svg">
<g clip-path="url(#clip0_2207_159830)">
<path d="M13.3333 22H12V23.3333H13.3333V22Z" fill="#999999"/>
<path d="M13.3333 24.6667H12V26H13.3333V24.6667Z" fill="#999999"/>
<path d="M13.3333 27.3333H12V28.6667H13.3333V27.3333Z" fill="#999999"/>
<path d="M13.3333 19.3333H12V20.6667H13.3333V19.3333Z" fill="#999999"/>
<path d="M13.3333 16.6667H12V18H13.3333V16.6667Z" fill="#999999"/>
<path d="M13.3333 14H12V15.3333H13.3333V14Z" fill="#999999"/>
<path d="M13.3333 11.3333H12V12.6667H13.3333V11.3333Z" fill="#999999"/>
<path d="M3.9974 11.3333H2.66406V12.6667H3.9974V11.3333Z" fill="#999999"/>
<path d="M37.3333 11.3333H36V12.6667H37.3333V11.3333Z" fill="#999999"/>
<path d="M37.3333 27.3333H36V28.6667H37.3333V27.3333Z" fill="#999999"/>
<path d="M3.9974 27.3333H2.66406V28.6667H3.9974V27.3333Z" fill="#999999"/>
<path d="M39.3333 16.6667C39.7015 16.6667 40 16.3682 40 16V9.33334C40 8.96517 39.7015 8.66667 39.3333 8.66667H0.666666C0.2985 8.66667 0 8.96517 0 9.33334V16C0 16.3682 0.2985 16.6667 0.666666 16.6667C2.50758 16.6667 4 18.1591 4 20C4 21.8409 2.50758 23.3333 0.666666 23.3333C0.2985 23.3333 0 23.6318 0 24V30.6667C0 31.0348 0.2985 31.3333 0.666666 31.3333H39.3333C39.7015 31.3333 40 31.0348 40 30.6667V24C40 23.6318 39.7015 23.3333 39.3333 23.3333C37.4924 23.3333 36 21.8409 36 20C36 18.1591 37.4924 16.6667 39.3333 16.6667ZM34.7103 20.663C35.0047 22.7138 36.6159 24.325 38.6667 24.6193V30H1.33333V24.6193C3.8845 24.2532 5.65583 21.8883 5.28966 19.337C4.99533 17.2863 3.38417 15.675 1.33333 15.3807V10H38.6667V15.3807C36.1155 15.7468 34.3442 18.1118 34.7103 20.663Z" fill="#999999"/>
<path d="M20.0026 13.3333C18.5299 13.3333 17.3359 14.5273 17.3359 16C17.3359 17.4728 18.5299 18.6667 20.0026 18.6667C21.4754 18.6667 22.6693 17.4728 22.6693 16C22.6693 14.5273 21.4754 13.3333 20.0026 13.3333ZM20.0026 17.3333C19.2662 17.3333 18.6693 16.7364 18.6693 16C18.6693 15.2636 19.2662 14.6667 20.0026 14.6667C20.739 14.6667 21.3359 15.2636 21.3359 16C21.3359 16.7364 20.739 17.3333 20.0026 17.3333Z" fill="#999999"/>
<path d="M28.0026 21.3333C26.5299 21.3333 25.3359 22.5273 25.3359 24C25.3359 25.4728 26.5299 26.6667 28.0026 26.6667C29.4754 26.6667 30.6693 25.4728 30.6693 24C30.6693 22.5273 29.4754 21.3333 28.0026 21.3333ZM28.0026 25.3333C27.2662 25.3333 26.6693 24.7364 26.6693 24C26.6693 23.2636 27.2662 22.6667 28.0026 22.6667C28.739 22.6667 29.3359 23.2636 29.3359 24C29.3359 24.7364 28.739 25.3333 28.0026 25.3333Z" fill="#999999"/>
<path d="M28.8617 14.1939L18.1953 24.8604L19.1381 25.8032L29.8045 15.1367L28.8617 14.1939Z" fill="#999999"/>
</g>
<defs>
<clipPath id="clip0_2207_159830">
<rect width="40" height="40" fill="white"/>
</clipPath>
</defs>
</svg>
