<svg width="52" height="52" viewBox="0 0 52 52" fill="none"
	xmlns="http://www.w3.org/2000/svg">
	<path d="M18.2628 40.7676L10.5049 44.9992C10.0497 45.2474 9.64057 45.5526 9.25989 45.8852C13.7829 49.6988 19.6216 51.9996 26.0009 51.9996C32.3332 51.9996 38.1346 49.7332 42.6449 45.9715C42.2289 45.6203 41.7775 45.3043 41.2772 45.0551L32.9699 40.902C31.8966 40.3653 31.2186 39.2684 31.2186 38.0685V34.8092C31.4521 34.5433 31.719 34.2018 32.0045 33.7986C33.1367 32.1994 33.9932 30.4402 34.5868 28.5947C35.6523 28.266 36.4372 27.2819 36.4372 26.1124V22.6333C36.4372 21.868 36.0968 21.1842 35.568 20.7054V15.6761C35.568 15.6761 36.6011 7.84961 26.0019 7.84961C15.4028 7.84961 16.4359 15.6761 16.4359 15.6761V20.7054C15.9061 21.1842 15.5666 21.868 15.5666 22.6333V26.1124C15.5666 27.0288 16.0483 27.8353 16.7695 28.3013C17.6388 32.0855 19.915 34.8092 19.915 34.8092V37.988C19.914 39.1458 19.2802 40.2123 18.2628 40.7676Z" fill="#E7ECED"/>
	<path d="M26.4445 0.00387171C12.0876 -0.241411 0.249279 11.1986 0.00399634 25.5555C-0.135324 33.6959 3.4929 41.0122 9.26981 45.8777C9.64754 45.548 10.0527 45.2458 10.5031 45.0006L18.2609 40.7689C19.2783 40.2136 19.9121 39.1471 19.9121 37.9874V34.8086C19.9121 34.8086 17.6349 32.0849 16.7666 28.3007C16.0465 27.8347 15.5638 27.0292 15.5638 26.1118V22.6327C15.5638 21.8674 15.9042 21.1836 16.4331 20.7048V15.6755C16.4331 15.6755 15.3999 7.849 25.9991 7.849C36.5983 7.849 35.5651 15.6755 35.5651 15.6755V20.7048C36.0949 21.1836 36.4344 21.8674 36.4344 22.6327V26.1118C36.4344 27.2813 35.6495 28.2654 34.584 28.5941C33.9904 30.4396 33.1339 32.1987 32.0017 33.798C31.7161 34.2012 31.4493 34.5427 31.2158 34.8086V38.0679C31.2158 39.2678 31.8937 40.3657 32.9671 40.9014L41.2743 45.0545C41.7727 45.3037 42.2231 45.6187 42.6381 45.9689C48.2404 41.2968 51.8598 34.3111 51.9942 26.4444C52.2414 12.0875 40.8024 0.249155 26.4445 0.00387171Z" fill="#556080"/>
</svg>
