<svg width="30" height="40" viewBox="0 0 30 40" fill="none"
	xmlns="http://www.w3.org/2000/svg">
	<path d="M5.24002 0H18.6272L29.9602 11.8176V34.799C29.9602 37.6688 27.629 40 24.7515 40H5.24007C2.37027 40 0.0390625 37.6688 0.0390625 34.799V5.20101C0.039012 2.3312 2.37022 0 5.24002 0V0Z" fill="#0263D1"/>
	<path opacity="0.302" fill-rule="evenodd" clip-rule="evenodd" d="M18.6113 0V11.7254H29.9597L18.6113 0Z" fill="white"/>
	<path d="M20.2728 20.8118H9.72465C9.23992 20.8118 8.83984 20.4194 8.83984 19.9347C8.83984 19.45 9.23992 19.0576 9.72465 19.0576H20.2728C20.7576 19.0576 21.1499 19.45 21.1499 19.9347C21.1499 20.4194 20.7576 20.8118 20.2728 20.8118ZM16.7568 31.3599H9.72465C9.23992 31.3599 8.83984 30.9675 8.83984 30.4829C8.83984 29.9982 9.23992 29.6058 9.72465 29.6058H16.7568C17.2415 29.6058 17.6338 29.9982 17.6338 30.4829C17.6338 30.9675 17.2415 31.3599 16.7568 31.3599ZM20.2728 27.8439H9.72465C9.23992 27.8439 8.83984 27.4515 8.83984 26.9668C8.83984 26.4821 9.23992 26.0897 9.72465 26.0897H20.2728C20.7576 26.0897 21.1499 26.4821 21.1499 26.9668C21.1499 27.4515 20.7576 27.8439 20.2728 27.8439ZM20.2728 24.3278H9.72465C9.23992 24.3278 8.83984 23.9354 8.83984 23.4507C8.83984 22.9661 9.23992 22.5737 9.72465 22.5737H20.2728C20.7576 22.5737 21.1499 22.9661 21.1499 23.4507C21.1499 23.9354 20.7576 24.3278 20.2728 24.3278Z" fill="white"/>
</svg>
