<svg width="30" height="40" viewBox="0 0 30 40" fill="none"
	xmlns="http://www.w3.org/2000/svg">
	<path d="M29.4531 10.9766V37.3828C29.4531 38.8047 28.3047 39.9531 26.8828 39.9531H3.11719C1.69531 39.9531 0.546875 38.8047 0.546875 37.3828V2.61719C0.546875 1.19531 1.69531 0.046875 3.11719 0.046875H18.5234L29.4531 10.9766Z" fill="#23A566"/>
	<path d="M21.3203 19.9141H8.67969C8.22656 19.9141 7.85938 20.2812 7.85938 20.7344V31.7422C7.85938 32.1953 8.22656 32.5625 8.67969 32.5625H21.3281C21.7812 32.5625 22.1484 32.1953 22.1484 31.7422V20.7422C22.1406 20.2891 21.7734 19.9141 21.3203 19.9141ZM9.5 25.1953H14.1797V27.2813H9.5V25.1953ZM15.8203 25.1953H20.5V27.2813H15.8203V25.1953ZM20.5 23.5547H15.8203V21.5625H20.5V23.5547ZM14.1797 21.5625V23.5547H9.5V21.5625H14.1797ZM9.5 28.9297H14.1797V30.9219H9.5V28.9297ZM15.8203 30.9219V28.9297H20.5V30.9219H15.8203Z" fill="white"/>
	<path opacity="0.19" d="M19.9922 10.5781L29.4531 18.2422V11.0469L24.0859 7.92969L19.9922 10.5781Z" fill="black"/>
	<path d="M29.4531 10.9766H21.0937C19.6719 10.9766 18.5234 9.82812 18.5234 8.40625V0.046875L29.4531 10.9766Z" fill="#8ED1B1"/>
</svg>
