<svg width="30" height="40" viewBox="0 0 30 40" fill="none"
	xmlns="http://www.w3.org/2000/svg">
	<path fill-rule="evenodd" clip-rule="evenodd" d="M5.25035 0H18.6237L29.958 11.8141V34.7926C29.958 37.6712 27.6292 40 24.7606 40H5.25035C2.3718 40 0.0429688 37.6712 0.0429688 34.7926V5.20738C0.0429182 2.32883 2.37175 0 5.25035 0V0Z" fill="#E5252A"/>
	<path opacity="0.302" fill-rule="evenodd" clip-rule="evenodd" d="M18.6133 0V11.7241H29.9576L18.6133 0Z" fill="white"/>
	<path d="M5.83008 29.8449V22.5386H8.93853C9.70816 22.5386 10.3179 22.7485 10.7776 23.1783C11.2374 23.598 11.4673 24.1678 11.4673 24.8774C11.4673 25.587 11.2374 26.1568 10.7776 26.5766C10.3179 27.0063 9.70816 27.2162 8.93853 27.2162H7.69914V29.8449H5.83008ZM7.69914 25.6271H8.72864C9.00848 25.6271 9.22838 25.5671 9.37833 25.4272C9.52823 25.2972 9.60824 25.1173 9.60824 24.8775C9.60824 24.6376 9.52828 24.4577 9.37833 24.3277C9.22843 24.1878 9.00853 24.1279 8.72864 24.1279H7.69914V25.6271ZM12.2369 29.8449V22.5386H14.8256C15.3353 22.5386 15.8151 22.6085 16.2648 22.7585C16.7146 22.9084 17.1244 23.1183 17.4842 23.4082C17.8441 23.688 18.1339 24.0678 18.3438 24.5476C18.5437 25.0274 18.6537 25.5771 18.6537 26.1968C18.6537 26.8065 18.5437 27.3562 18.3438 27.8359C18.1339 28.3157 17.8441 28.6955 17.4842 28.9753C17.1244 29.2652 16.7146 29.4751 16.2648 29.625C15.8151 29.7749 15.3353 29.8449 14.8256 29.8449H12.2369ZM14.066 28.2557H14.6057C14.8955 28.2557 15.1654 28.2258 15.4153 28.1558C15.6551 28.0858 15.885 27.9759 16.1049 27.826C16.3148 27.6761 16.4847 27.4661 16.6047 27.1863C16.7246 26.9064 16.7846 26.5766 16.7846 26.1968C16.7846 25.8069 16.7246 25.4771 16.6047 25.1973C16.4847 24.9174 16.3148 24.7075 16.1049 24.5576C15.885 24.4077 15.6552 24.2977 15.4153 24.2278C15.1654 24.1578 14.8955 24.1278 14.6057 24.1278H14.066V28.2557ZM19.5932 29.8449V22.5386H24.7906V24.1278H21.4623V25.2972H24.1209V26.8764H21.4623V29.8449H19.5932Z" fill="white"/>
</svg>
