<svg width="21" height="21" viewBox="0 0 21 21" fill="none"
	xmlns="http://www.w3.org/2000/svg">
	<path d="M10.4997 5.29183C7.62468 5.29183 5.29134 7.62516 5.29134 10.5002C5.29134 13.3752 7.62468 15.7085 10.4997 15.7085C13.3747 15.7085 15.708 13.3752 15.708 10.5002C15.708 7.62516 13.3747 5.29183 10.4997 5.29183ZM10.4997 0.0834961C4.74967 0.0834961 0.0830078 4.75016 0.0830078 10.5002C0.0830078 16.2502 4.74967 20.9168 10.4997 20.9168C16.2497 20.9168 20.9163 16.2502 20.9163 10.5002C20.9163 4.75016 16.2497 0.0834961 10.4997 0.0834961ZM10.4997 18.8335C5.89551 18.8335 2.16634 15.1043 2.16634 10.5002C2.16634 5.896 5.89551 2.16683 10.4997 2.16683C15.1038 2.16683 18.833 5.896 18.833 10.5002C18.833 15.1043 15.1038 18.8335 10.4997 18.8335Z" fill="#004390"/>
</svg>
