<svg width="25" height="23" viewBox="0 0 25 23" fill="none"
	xmlns="http://www.w3.org/2000/svg">
	<path d="M12.4996 16.1328C11.8007 16.1328 11.2148 16.7187 11.2148 17.4176C11.2148 18.1165 11.8007 18.7024 12.4996 18.7024C13.1729 18.7024 13.7844 18.1165 13.7536 17.4484C13.7844 16.7135 13.2037 16.1328 12.4996 16.1328Z" fill="#F1B821"/>
	<path d="M24.3917 20.6863C25.1985 19.2936 25.2036 17.6337 24.4019 16.2461L16.354 2.30877C15.5575 0.905783 14.1185 0.0732422 12.5048 0.0732422C10.8911 0.0732422 9.45218 0.910921 8.65562 2.30363L0.597449 16.2564C-0.204256 17.6594 -0.199117 19.3296 0.612867 20.7223C1.41457 22.0996 2.84839 22.927 4.4518 22.927H20.527C22.1356 22.927 23.5797 22.0893 24.3917 20.6863ZM22.6444 19.6791C22.1972 20.4499 21.4058 20.9073 20.5219 20.9073H4.44666C3.57301 20.9073 2.78672 20.4602 2.3499 19.7047C1.90793 18.939 1.90279 18.0242 2.34476 17.2534L10.4029 3.30576C10.8398 2.54003 11.6209 2.08778 12.5048 2.08778C13.3836 2.08778 14.1699 2.54517 14.6067 3.3109L22.6598 17.2585C23.0915 18.0088 23.0863 18.9133 22.6444 19.6791Z" fill="#F1B821"/>
	<path d="M12.1813 7.1144C11.5697 7.28913 11.1895 7.84415 11.1895 8.51738C11.2203 8.92337 11.246 9.3345 11.2768 9.7405C11.3642 11.2874 11.4515 12.8034 11.5389 14.3503C11.5697 14.8745 11.9757 15.2548 12.4999 15.2548C13.0241 15.2548 13.4353 14.8488 13.461 14.3195C13.461 14.0008 13.461 13.7079 13.4918 13.3841C13.5483 12.3923 13.61 11.4004 13.6665 10.4086C13.6974 9.76619 13.7539 9.1238 13.7847 8.48141C13.7847 8.25015 13.7539 8.04458 13.6665 7.83901C13.4044 7.26343 12.7929 6.9705 12.1813 7.1144Z" fill="#F1B821"/>
</svg>
