<svg width="99" height="99" viewBox="0 0 99 99" fill="none" xmlns="http://www.w3.org/2000/svg">
<path d="M33.9355 28.0371H18.4668C16.865 28.0371 15.5664 29.3357 15.5664 30.9375C15.5664 32.5393 16.865 33.8379 18.4668 33.8379H33.9355C35.5373 33.8379 36.8359 32.5393 36.8359 30.9375C36.8359 29.3357 35.5373 28.0371 33.9355 28.0371Z" fill="#004390"/>
<path d="M33.9355 43.5059H18.4668C16.865 43.5059 15.5664 44.8045 15.5664 46.4062C15.5664 48.008 16.865 49.3066 18.4668 49.3066H33.9355C35.5373 49.3066 36.8359 48.008 36.8359 46.4062C36.8359 44.8045 35.5373 43.5059 33.9355 43.5059Z" fill="#004390"/>
<path d="M33.9355 58.9746H18.4668C16.865 58.9746 15.5664 60.2732 15.5664 61.875C15.5664 63.4768 16.865 64.7754 18.4668 64.7754H33.9355C35.5373 64.7754 36.8359 63.4768 36.8359 61.875C36.8359 60.2732 35.5373 58.9746 33.9355 58.9746Z" fill="#004390"/>
<path d="M75.5078 53.1599V26.6797C75.5078 22.857 74.0338 19.2507 71.3574 16.5231L59.5891 4.35329C59.5835 4.34749 59.5777 4.3415 59.5721 4.3357C56.8626 1.58033 53.0922 0 49.2283 0H11.8926C7.09475 0 3.19141 3.90335 3.19141 8.70117V83.918C3.19141 88.7158 7.09475 92.6191 11.8926 92.6191H56.7197C60.8529 96.5701 66.4516 99 72.6074 99C85.4016 99 95.8105 88.6779 95.8105 75.9902C95.8105 64.2765 86.9383 54.5797 75.5078 53.1599ZM8.99219 83.918V8.70117C8.99219 7.1019 10.2933 5.80078 11.8926 5.80078H49.2283C51.5436 5.80078 53.8028 6.7465 55.4286 8.39528L67.1947 20.5632C67.2003 20.569 67.2059 20.5748 67.2113 20.5804C68.8207 22.2176 69.707 24.3836 69.707 26.6799V53.1628C58.3835 54.5933 49.5977 64.285 49.5977 75.9904C49.5977 79.9027 50.5803 83.5895 52.3099 86.8186H11.8926C10.2933 86.8184 8.99219 85.5172 8.99219 83.918ZM72.6074 93.1992C63.1183 93.1992 55.3984 85.4793 55.3984 75.9902C55.3984 66.5011 63.1183 58.7812 72.6074 58.7812C82.2031 58.7812 90.0098 66.5011 90.0098 75.9902C90.0098 85.4793 82.2031 93.1992 72.6074 93.1992Z" fill="#004390"/>
<path d="M79.2969 69.1212C78.0665 68.0962 76.2375 68.2623 75.212 69.4927L70.3167 75.3671L69.2062 73.1462C68.4898 71.7134 66.7477 71.1324 65.3149 71.8491C63.8821 72.5654 63.3014 74.3077 64.0178 75.7403L67.1116 81.9278C67.5493 82.8033 68.3991 83.3989 69.3713 83.5118C69.4833 83.5246 69.5949 83.5312 69.7061 83.5312C70.5609 83.5312 71.3794 83.1529 71.9339 82.4876L79.6683 73.2063C80.6937 71.9754 80.5274 70.1466 79.2969 69.1212V69.1212Z" fill="#004390"/>
<path d="M49.4043 33.8379H52.498C54.0998 33.8379 55.3984 32.5393 55.3984 30.9375C55.3984 29.3357 54.0998 28.0371 52.498 28.0371H49.4043C47.8025 28.0371 46.5039 29.3357 46.5039 30.9375C46.5039 32.5393 47.8025 33.8379 49.4043 33.8379Z" fill="#004390"/>
<path d="M55.3984 46.4062C55.3984 44.8045 54.0998 43.5059 52.498 43.5059H49.4043C47.8025 43.5059 46.5039 44.8045 46.5039 46.4062C46.5039 48.008 47.8025 49.3066 49.4043 49.3066H52.498C54.0998 49.3066 55.3984 48.008 55.3984 46.4062Z" fill="#004390"/>
</svg>
