<svg width="101" height="101" viewBox="0 0 101 101" fill="none" xmlns="http://www.w3.org/2000/svg">
<path d="M81.4813 48.3672C81.4813 31.2844 67.5833 17.3862 50.5003 17.3862C33.4173 17.3862 19.5195 31.2844 19.5195 48.3672C19.5195 58.8432 24.8682 68.6347 33.5889 74.3287V84.089C33.5889 93.4138 41.1752 101 50.4999 101C59.8246 101 67.4109 93.4136 67.4109 84.089V78.607C67.4109 78.6056 67.4107 74.3291 67.4107 74.3291C76.1324 68.6349 81.4813 58.8436 81.4813 48.3672ZM61.4389 84.0892C61.4389 90.1208 56.5319 95.0276 50.5003 95.0276C44.4687 95.0276 39.5617 90.1206 39.5617 84.0892V81.593H61.4389V84.0892ZM62.9375 70.069C62.0104 70.6016 61.4389 71.5891 61.4389 72.6585V75.6208H53.4863V60.1791C57.3638 58.9175 60.1752 55.2707 60.1752 50.9778C60.1752 49.3287 58.8381 47.9916 57.189 47.9916C55.5398 47.9916 54.2028 49.3287 54.2028 50.9778C54.2028 53.0193 52.5418 54.6805 50.5003 54.6805C48.4588 54.6805 46.7976 53.0195 46.7976 50.9778C46.7976 49.3287 45.4606 47.9916 43.8114 47.9916C42.1623 47.9916 40.8252 49.3287 40.8252 50.9778C40.8252 55.2705 43.6364 58.9175 47.5141 60.1791V75.6208H39.5621V72.6583C39.5621 71.5891 38.9906 70.6016 38.0635 70.069C30.3092 65.6141 25.4923 57.2986 25.4923 48.3672C25.4923 34.5775 36.711 23.3586 50.5009 23.3586C64.2907 23.3586 75.5094 34.5773 75.5094 48.3672C75.509 57.2988 70.6918 65.6145 62.9375 70.069Z" fill="#004390"/>
<path d="M50.5018 0C48.8527 0 47.5156 1.33707 47.5156 2.98621V8.22854C47.5156 9.87768 48.8527 11.2147 50.5018 11.2147C52.151 11.2147 53.488 9.87768 53.488 8.22854V2.98621C53.488 1.33707 52.1512 0 50.5018 0Z" fill="#004390"/>
<path d="M42.0986 8.99432L40.2451 4.09029C39.662 2.54768 37.9381 1.76986 36.396 2.35278C34.8534 2.93589 34.0754 4.65921 34.6585 6.20182L36.5118 11.1058C36.9636 12.3009 38.0994 13.0371 39.3057 13.0371C39.6564 13.0371 40.0135 12.9747 40.3611 12.8434C41.9037 12.2602 42.6817 10.5369 42.0986 8.99432Z" fill="#004390"/>
<path d="M64.6032 2.35291C63.0603 1.7696 61.3372 2.54801 60.7541 4.09062L58.9006 8.99465C58.3177 10.5371 59.0957 12.2604 60.6383 12.8435C60.9859 12.9749 61.3428 13.0372 61.6935 13.0372C62.9 13.0372 64.0358 12.301 64.4874 11.106L66.3409 6.20196C66.924 4.65914 66.146 2.93603 64.6032 2.35291Z" fill="#004390"/>
</svg>
