<svg width="61" height="60" viewBox="0 0 61 60" fill="none" xmlns="http://www.w3.org/2000/svg">
<g clip-path="url(#clip0_2507_165619)">
<path d="M52.7257 14.5107C53.2877 14.5107 53.8296 14.2876 54.2293 13.8878L60.1201 7.99704C60.9072 7.20989 60.3946 5.85895 59.2856 5.78935L56.1508 5.59259L58.1963 3.54708C58.5396 3.20384 58.5396 2.64732 58.1963 2.3042C57.853 1.96095 57.2966 1.96095 56.9533 2.3042L54.9078 4.3497L54.7111 1.21494C54.6413 0.103888 53.2891 -0.405174 52.5034 0.38045L46.6125 6.27122C46.1811 6.70259 45.9558 7.29919 45.994 7.90797L46.1965 11.1339C41.28 6.94188 34.9436 4.5379 28.2313 4.5379C12.9044 4.5379 0.5 16.9408 0.5 32.2691C0.5 39.1868 3.06171 45.8124 7.71346 50.9253C8.0403 51.2843 8.59612 51.3105 8.95506 50.9839C9.31412 50.6572 9.34037 50.1014 9.01377 49.7423C4.6571 44.9538 2.25781 38.7484 2.25781 32.2691C2.25781 17.9473 13.9095 6.29559 28.2313 6.29559C34.9429 6.29559 41.2583 8.86785 45.9823 13.2752L41.9719 17.2854C38.345 13.9562 33.5161 11.9189 28.2313 11.9189C17.0103 11.9189 7.88127 21.0479 7.88127 32.269C7.88127 35.4984 8.66034 38.7151 10.1346 41.5714C10.1347 41.5715 10.1347 41.5717 10.1348 41.5718C13.5507 48.1906 20.4302 52.619 28.2314 52.619C37.8442 52.619 46.2047 45.8293 48.1587 36.4066C48.2572 35.9313 47.9518 35.4661 47.4765 35.3675C47.0013 35.269 46.5361 35.5744 46.4375 36.0497C44.6577 44.632 37.001 50.8612 28.2315 50.8612C21.2461 50.8612 14.9103 46.9927 11.6969 40.7656C11.6969 40.7655 11.6968 40.7654 11.6968 40.7653C10.3315 38.1198 9.6392 35.2612 9.6392 32.269C9.6392 22.0172 17.9797 13.6768 28.2314 13.6768C33.0326 13.6768 37.4222 15.5168 40.7293 18.528L36.7547 22.5026C34.4738 20.5095 31.4913 19.3001 28.2314 19.3001C21.0804 19.3001 15.2627 25.1179 15.2627 32.2689C15.2627 39.4199 21.0804 45.2376 28.2314 45.2376C35.3824 45.2376 41.2003 39.4199 41.2003 32.2689C41.2003 29.0089 39.9909 26.0265 37.9977 23.7456L41.9726 19.7707C44.9604 23.0513 46.7961 27.3984 46.8233 32.1607C46.826 32.6443 47.219 33.0346 47.7021 33.0346H47.7073C48.1926 33.0318 48.5838 32.636 48.5811 32.1506C48.5511 26.9082 46.519 22.1255 43.2156 18.5276L47.2262 14.517C51.6145 19.209 54.2048 25.487 54.2048 32.2687C54.2047 46.5909 42.5531 58.2426 28.2313 58.2426C22.2982 58.2426 16.4968 56.1902 11.8956 52.4635C11.5182 52.1581 10.9652 52.2161 10.6594 52.5932C10.3539 52.9705 10.4121 53.5239 10.7892 53.8294C15.7024 57.8089 21.8968 60.0004 28.2313 60.0004C43.5582 60.0004 55.9626 47.5975 55.9626 32.2691C55.9626 26.2676 54.0766 20.5558 50.5087 15.7513C50.1394 15.2539 49.7546 14.7716 49.357 14.3032C52.8024 14.5197 52.6167 14.5107 52.7257 14.5107V14.5107ZM39.4424 32.2691C39.4424 38.4508 34.4132 43.4801 28.2313 43.4801C22.0496 43.4801 17.0204 38.4508 17.0204 32.2691C17.0204 26.0874 22.0496 21.0581 28.2313 21.0581C31.0065 21.0581 33.549 22.0722 35.5089 23.7485L31.5093 27.7481C30.5877 27.0782 29.4552 26.6815 28.2313 26.6815C25.1503 26.6815 22.6437 29.1881 22.6437 32.2691C22.6437 35.3501 25.1503 37.8567 28.2313 37.8567C31.3124 37.8567 33.819 35.3501 33.819 32.2691C33.819 31.0451 33.4224 29.9126 32.7524 28.9911L36.752 24.9915C38.4282 26.9514 39.4424 29.4939 39.4424 32.2691V32.2691ZM27.6098 32.8907C27.9531 33.2339 28.5095 33.2339 28.8528 32.8907L31.4874 30.2561C31.8506 30.8414 32.0611 31.5311 32.0611 32.2692C32.0611 34.381 30.343 36.099 28.2312 36.099C26.1194 36.099 24.4014 34.3809 24.4014 32.2692C24.4014 30.1575 26.1194 28.4394 28.2312 28.4394C28.9694 28.4394 29.659 28.6499 30.2444 29.0131L27.6096 31.6478C27.2665 31.9909 27.2665 32.5474 27.6098 32.8907V32.8907ZM47.7484 7.79782C47.7417 7.69223 47.7808 7.58876 47.8556 7.51411L53.021 2.34884L53.2506 6.00696L47.9675 11.29L47.7484 7.79782ZM49.2105 12.5329L54.4936 7.24985L58.1517 7.47942L52.9863 12.6448C52.9117 12.7196 52.8074 12.7593 52.7026 12.752L49.2105 12.5329Z" fill="white"/>
</g>
<defs>
<clipPath id="clip0_2507_165619">
<rect width="60" height="60" fill="white" transform="translate(0.5)"/>
</clipPath>
</defs>
</svg>
