<svg width="61" height="60" viewBox="0 0 61 60" fill="none" xmlns="http://www.w3.org/2000/svg">
<g clip-path="url(#clip0_2501_10144)">
<path d="M4.12305 38.8308C4.12305 44.6829 8.8841 49.444 14.7363 49.444C20.5883 49.444 25.3494 44.6829 25.3494 38.8308C25.3494 32.9786 20.5883 28.2175 14.7363 28.2175C8.8841 28.2174 4.12305 32.9785 4.12305 38.8308ZM23.5966 38.8308C23.5966 43.7164 19.6219 47.6911 14.7364 47.6911C9.85087 47.6911 5.87593 43.7164 5.87593 38.8308C5.87593 33.9451 9.85076 29.9704 14.7363 29.9704C19.6218 29.9704 23.5966 33.945 23.5966 38.8308Z" fill="white"/>
<path d="M58.4851 31.5373C58.483 31.5328 58.4815 31.528 58.4793 31.5234L51.3702 16.7851C50.388 14.7486 48.7565 13.1332 46.7989 12.1382L46.1279 10.7469C45.0104 8.43019 42.6262 6.93335 40.0542 6.93335C36.336 6.93335 33.311 9.95835 33.311 13.6767V16.2659C32.7201 17.3252 32.3132 18.5002 32.1334 19.7479H28.8668C28.687 18.5002 28.2801 17.3251 27.6891 16.2657V13.6767C27.6891 9.95847 24.6641 6.93335 20.9459 6.93335C18.3739 6.93335 15.9898 8.43031 14.8722 10.747L14.2012 12.1382C12.2436 13.1333 10.6121 14.7487 9.62993 16.7851L8.39859 19.3378C8.18824 19.7737 8.37124 20.2977 8.80713 20.508C9.24313 20.7181 9.767 20.5355 9.97735 20.0993L11.2087 17.5466C12.6044 14.6527 15.5826 12.7828 18.7955 12.7828C23.4402 12.7828 27.2189 16.5614 27.2189 21.2061V31.988C26.3936 30.4837 25.2942 29.1232 23.9532 27.9827C23.5845 27.6691 23.0313 27.714 22.7179 28.0825C22.4042 28.4512 22.449 29.0044 22.8177 29.318C25.6148 31.6966 27.2189 35.1639 27.2189 38.8308C27.2189 45.7139 21.619 51.3138 14.7359 51.3138C7.85286 51.3138 2.25288 45.7141 2.25288 38.831C2.25288 31.9479 7.85274 26.348 14.7358 26.348C16.5251 26.348 18.252 26.7183 19.8688 27.4487C20.3095 27.6478 20.8291 27.452 21.0284 27.0107C21.2277 26.5696 21.0316 26.0505 20.5906 25.8512C18.7454 25.0178 16.7756 24.5951 14.7358 24.5951C11.6956 24.5951 8.87537 25.5536 6.56017 27.1835L8.35056 23.4716C8.56091 23.0356 8.3779 22.5118 7.94202 22.3014C7.50626 22.0915 6.98215 22.2741 6.7718 22.7101L2.52072 31.5234C2.5185 31.528 2.51698 31.5328 2.51488 31.5373C1.23633 33.6719 0.5 36.1668 0.5 38.831C0.5 46.6806 6.88609 53.0668 14.7358 53.0668C22.4866 53.0668 28.8097 46.8405 28.9679 39.127H32.0322C32.1904 46.8405 38.5135 53.0668 46.2642 53.0668C54.1139 53.0668 60.5 46.6806 60.5 38.831C60.5 36.1668 59.7638 33.6719 58.4851 31.5373ZM49.7914 17.5466L54.4397 27.1833C52.1246 25.5535 49.3044 24.595 46.2642 24.595C40.891 24.595 36.2042 27.5876 33.7813 31.9933V21.2061C33.7813 16.5614 37.56 12.7828 42.2046 12.7828C45.4175 12.7828 48.3955 14.6528 49.7914 17.5466ZM32.0284 37.3741H28.9718V21.5007H32.0284V37.3741ZM40.0542 8.68623C41.8716 8.68623 43.5598 9.69741 44.4289 11.2808C43.7061 11.1169 42.9609 11.0301 42.2046 11.0301C39.4249 11.0301 36.9023 12.1509 35.0639 13.9637V13.6767C35.0637 10.9249 37.3025 8.68623 40.0542 8.68623ZM18.7955 11.0299C18.0392 11.0299 17.294 11.1168 16.5712 11.2807C17.4404 9.69729 19.1287 8.68611 20.9459 8.68611C23.6976 8.68611 25.9363 10.9248 25.9363 13.6766V13.9636C24.0978 12.1507 21.5752 11.0299 18.7955 11.0299ZM46.2642 51.3139C39.3811 51.3139 33.7813 45.7141 33.7813 38.831C33.7813 31.9479 39.3811 26.348 46.2642 26.348C53.1473 26.348 58.7471 31.9479 58.7471 38.831C58.7471 45.7141 53.1473 51.3139 46.2642 51.3139Z" fill="white"/>
<path d="M50.2453 28.996C49.7968 28.8137 49.2854 29.0297 49.1035 29.4781C48.9212 29.9266 49.1372 30.4378 49.5857 30.62C52.95 31.9865 55.1239 35.2098 55.1239 38.8315C55.1239 43.7171 51.1491 47.6918 46.2636 47.6918C41.3781 47.6918 37.4034 43.7171 37.4034 38.8315C37.4034 33.9556 41.3701 29.9811 46.2462 29.9716C46.7302 29.9707 47.1218 29.5775 47.1209 29.0934C47.1199 28.61 46.7278 28.2188 46.2444 28.2188C46.2439 28.2188 46.2433 28.2188 46.2427 28.2188C40.4022 28.2301 35.6504 32.991 35.6504 38.8315C35.6504 44.6837 40.4114 49.4447 46.2635 49.4447C52.1156 49.4447 56.8767 44.6837 56.8767 38.8315C56.8768 34.4931 54.2739 30.6323 50.2453 28.996Z" fill="white"/>
</g>
<defs>
<clipPath id="clip0_2501_10144">
<rect width="60" height="60" fill="white" transform="translate(0.5)"/>
</clipPath>
</defs>
</svg>
