<svg width="61" height="60" viewBox="0 0 61 60" fill="none" xmlns="http://www.w3.org/2000/svg">
<g clip-path="url(#clip0_2501_36006)">
<path d="M53.2657 19.0748L56.7093 12.19C56.9201 11.474 56.6581 11.0501 55.9234 10.9183H45.8839V4.51816C45.8839 4.03277 45.4906 3.63946 45.0052 3.63946H32.3613C32.3828 1.76349 31.2909 0 29.2085 0C27.4701 0 26.0557 1.41436 26.0557 3.15278V17.1604C26.0557 17.6458 26.4491 18.0391 26.9344 18.0391C27.4197 18.0391 27.8131 17.6458 27.8131 17.1604V3.15278C27.8131 2.38339 28.4391 1.7574 29.2085 1.7574C29.9779 1.7574 30.6039 2.38339 30.6039 3.15278V38.2282H29.3954C28.5232 38.2282 27.8137 37.5186 27.8137 36.6465L27.8131 20.9892C27.8131 20.5038 27.4197 20.1105 26.9344 20.1105C26.4491 20.1105 26.0557 20.5038 26.0557 20.9892V32.7802C24.5274 32.8455 22.8834 33.2601 21.4274 35.9551C20.6926 37.3155 20.0277 37.4804 19.0213 37.7299C18.3395 37.8989 17.5538 38.0939 16.7349 38.6888C16.5873 38.4112 16.2953 38.2221 15.959 38.2221H13.2783V37.0529C13.2783 36.5675 12.8849 36.1742 12.3996 36.1742H5.0994C4.61413 36.1742 4.2207 36.5675 4.2207 37.0529V47.2751C4.2207 47.7605 4.61413 48.1538 5.0994 48.1538C5.58468 48.1538 5.9781 47.7605 5.9781 47.2751V37.9316H11.5209V54.6035H5.9781V51.1052C5.9781 50.6198 5.58468 50.2265 5.0994 50.2265C4.61413 50.2265 4.2207 50.6198 4.2207 51.1052V55.4822C4.2207 55.9676 4.61413 56.3609 5.0994 56.3609L15.959 56.3605C16.4442 56.3605 16.8377 55.9672 16.8377 55.4818V54.7514C17.8314 54.8711 18.585 55.1073 19.3078 55.6661C19.8875 56.1142 20.6253 56.361 21.3854 56.361H26.0557V59.1213C26.0557 59.6067 26.4491 60 26.9344 60H31.4826C31.968 60 32.3613 59.6067 32.3613 59.1213V56.361H34.1792C36.5031 56.361 37.9 53.7037 36.6437 51.7833C38.0595 50.8646 38.3886 48.9959 37.4262 47.6204C38.7609 46.6746 39.0425 44.8721 38.1112 43.5329C40.4162 41.9112 39.1736 38.4826 36.518 38.232C36.4906 38.2294 32.3613 38.2282 32.3613 38.2282V19.9539H36.8473V26.354C36.8473 26.8244 37.2446 27.2327 37.726 27.2327H46.7438C47.2292 27.2327 47.6225 26.8394 47.6225 26.354C47.6225 25.8686 47.2292 25.4753 46.7438 25.4753H39.8477L45.6265 19.6966C45.7893 19.5337 45.8838 19.3055 45.8838 19.0752V12.6755H54.5015L51.4972 18.6816C51.3735 18.9291 51.3735 19.2203 51.4972 19.4678L54.5016 25.4753H50.5726C50.0872 25.4753 49.6939 25.8686 49.6939 26.354C49.6939 26.8394 50.0872 27.2327 50.5726 27.2327H55.9234C56.658 27.1009 56.92 26.677 56.7093 25.961L53.2657 19.0748ZM15.0803 54.6033H13.2787V39.9795H15.0803V54.6033ZM30.6039 58.2426H27.8131V56.361H30.6039V58.2426ZM36.3914 39.9856C37.9207 40.1488 37.976 42.3217 36.3831 42.3217H35.743C34.4706 42.49 34.5488 43.935 35.66 44.0753C37.1779 44.2668 37.3285 46.4154 35.6895 46.4154H35.0623C33.4942 46.4344 33.6505 48.1528 34.9793 48.1689C36.5924 48.1885 36.5866 50.509 35.01 50.509H34.2328C32.7522 50.5351 33.0647 52.1754 34.1498 52.2625C35.7154 52.3882 35.7865 54.6037 34.1792 54.6037H21.3854C21.0121 54.6037 20.656 54.4873 20.3826 54.2759C19.2332 53.3873 18.0192 53.1029 16.8379 52.9814V41.0592C17.7312 39.8607 18.5288 39.6628 19.4442 39.4358C20.581 39.1539 21.8695 38.8343 22.9735 36.7905C23.9706 34.9446 24.9023 34.6025 26.0556 34.5392C26.0556 34.5392 26.0565 36.6616 26.0568 36.6693C26.0692 38.5 27.5618 39.9856 29.3952 39.9856H36.3914ZM38.6052 24.2323V19.9539H42.8838L38.6052 24.2323ZM44.1264 18.1965H32.3614V5.39686H44.1264V18.1965Z" fill="white"/>
<path d="M9.62849 44.5069V40.9314C9.62849 40.446 9.23507 40.0527 8.74979 40.0527C8.26452 40.0527 7.87109 40.446 7.87109 40.9314V44.5069C7.87109 44.9923 8.26452 45.3856 8.74979 45.3856C9.23507 45.3856 9.62849 44.9922 9.62849 44.5069Z" fill="white"/>
</g>
<defs>
<clipPath id="clip0_2501_36006">
<rect width="60" height="60" fill="white" transform="translate(0.5)"/>
</clipPath>
</defs>
</svg>
